<?xml version="1.0"?>
<!-- Generated by SVGo and Plotinum VG -->
<svg width="432pt" height="720pt" viewBox="0 0 432 720"
	xmlns="http://www.w3.org/2000/svg"
	xmlns:xlink="http://www.w3.org/1999/xlink">
<g transform="scale(1, -1) translate(0, -720)">
<path d="M0,0L432,0L432,720L0,720Z" style="fill:#FFFFFF" />
<text x="164.73" y="-710.61" transform="scale(1, -1)"
	style="font-family:Liberation Serif;font-variant:normal;font-weight:normal;font-style:normal;font-size:12px">Space-Time Diagram</text>
<path d="M13.486,67.491L21.925,67.491L30.364,67.491L38.803,67.491L47.243,67.491L55.682,67.491L64.121,67.491L72.56,67.491L80.999,67.491L89.438,67.491L97.877,67.491L106.32,67.491L114.75,67.491L123.19,67.491L131.63,67.491L140.07,67.491L148.51,67.491L156.95,67.491L165.39,67.491L173.83,67.491L182.27,67.491L190.71,67.491L199.15,67.491L207.58,67.491L216.02,67.491L224.46,67.491L232.9,67.491L241.34,67.491L249.78,67.491L258.22,67.491L266.66,67.491L275.1,67.491L283.54,67.491L291.98,67.491L300.41,67.491L308.85,67.491L317.29,67.491L325.73,67.491L334.17,67.491L342.61,67.491L351.05,67.491L359.49,67.491L367.93,67.491L376.37,67.491L384.8,67.491L393.24,67.491L401.68,67.491L410.12,67.491L418.56,67.491L427,67.491" style="fill:none;stroke:#000000;stroke-dasharray:5,5" />
<path d="M13.486,144.98L21.925,144.98L30.364,144.98L38.803,144.98L47.243,144.98L55.682,144.98L64.121,144.98L72.56,144.98L80.999,144.98L89.438,144.98L97.877,144.98L106.32,144.98L114.75,144.98L123.19,144.98L131.63,144.98L140.07,144.98L148.51,144.98L156.95,144.98L165.39,144.98L173.83,144.98L182.27,144.98L190.71,144.98L199.15,144.98L207.58,144.98L216.02,144.98L224.46,144.98L232.9,144.98L241.34,144.98L249.78,144.98L258.22,144.98L266.66,144.98L275.1,144.98L283.54,144.98L291.98,144.98L300.41,144.98L308.85,144.98L317.29,144.98L325.73,144.98L334.17,144.98L342.61,144.98L351.05,144.98L359.49,144.98L367.93,144.98L376.37,144.98L384.8,144.98L393.24,144.98L401.68,144.98L410.12,144.98L418.56,144.98L427,144.98" style="fill:none;stroke:#000000;stroke-dasharray:5,5" />
<path d="M13.486,222.47L21.925,222.47L30.364,222.47L38.803,222.47L47.243,222.47L55.682,222.47L64.121,222.47L72.56,222.47L80.999,222.47L89.438,222.47L97.877,222.47L106.32,222.47L114.75,222.47L123.19,222.47L131.63,222.47L140.07,222.47L148.51,222.47L156.95,222.47L165.39,222.47L173.83,222.47L182.27,222.47L190.71,222.47L199.15,222.47L207.58,222.47L216.02,222.47L224.46,222.47L232.9,222.47L241.34,222.47L249.78,222.47L258.22,222.47L266.66,222.47L275.1,222.47L283.54,222.47L291.98,222.47L300.41,222.47L308.85,222.47L317.29,222.47L325.73,222.47L334.17,222.47L342.61,222.47L351.05,222.47L359.49,222.47L367.93,222.47L376.37,222.47L384.8,222.47L393.24,222.47L401.68,222.47L410.12,222.47L418.56,222.47L427,222.47" style="fill:none;stroke:#000000;stroke-dasharray:5,5" />
<path d="M13.486,299.96L21.925,299.96L30.364,299.96L38.803,299.96L47.243,299.96L55.682,299.96L64.121,299.96L72.56,299.96L80.999,299.96L89.438,299.96L97.877,299.96L106.32,299.96L114.75,299.96L123.19,299.96L131.63,299.96L140.07,299.96L148.51,299.96L156.95,299.96L165.39,299.96L173.83,299.96L182.27,299.96L190.71,299.96L199.15,299.96L207.58,299.96L216.02,299.96L224.46,299.96L232.9,299.96L241.34,299.96L249.78,299.96L258.22,299.96L266.66,299.96L275.1,299.96L283.54,299.96L291.98,299.96L300.41,299.96L308.85,299.96L317.29,299.96L325.73,299.96L334.17,299.96L342.61,299.96L351.05,299.96L359.49,299.96L367.93,299.96L376.37,299.96L384.8,299.96L393.24,299.96L401.68,299.96L410.12,299.96L418.56,299.96L427,299.96" style="fill:none;stroke:#000000;stroke-dasharray:5,5" />
<path d="M13.486,377.45L21.925,377.45L30.364,377.45L38.803,377.45L47.243,377.45L55.682,377.45L64.121,377.45L72.56,377.45L80.999,377.45L89.438,377.45L97.877,377.45L106.32,377.45L114.75,377.45L123.19,377.45L131.63,377.45L140.07,377.45L148.51,377.45L156.95,377.45L165.39,377.45L173.83,377.45L182.27,377.45L190.71,377.45L199.15,377.45L207.58,377.45L216.02,377.45L224.46,377.45L232.9,377.45L241.34,377.45L249.78,377.45L258.22,377.45L266.66,377.45L275.1,377.45L283.54,377.45L291.98,377.45L300.41,377.45L308.85,377.45L317.29,377.45L325.73,377.45L334.17,377.45L342.61,377.45L351.05,377.45L359.49,377.45L367.93,377.45L376.37,377.45L384.8,377.45L393.24,377.45L401.68,377.45L410.12,377.45L418.56,377.45L427,377.45" style="fill:none;stroke:#000000;stroke-dasharray:5,5" />
<path d="M13.486,454.94L21.925,454.94L30.364,454.94L38.803,454.94L47.243,454.94L55.682,454.94L64.121,454.94L72.56,454.94L80.999,454.94L89.438,454.94L97.877,454.94L106.32,454.94L114.75,454.94L123.19,454.94L131.63,454.94L140.07,454.94L148.51,454.94L156.95,454.94L165.39,454.94L173.83,454.94L182.27,454.94L190.71,454.94L199.15,454.94L207.58,454.94L216.02,454.94L224.46,454.94L232.9,454.94L241.34,454.94L249.78,454.94L258.22,454.94L266.66,454.94L275.1,454.94L283.54,454.94L291.98,454.94L300.41,454.94L308.85,454.94L317.29,454.94L325.73,454.94L334.17,454.94L342.61,454.94L351.05,454.94L359.49,454.94L367.93,454.94L376.37,454.94L384.8,454.94L393.24,454.94L401.68,454.94L410.12,454.94L418.56,454.94L427,454.94" style="fill:none;stroke:#000000;stroke-dasharray:5,5" />
<path d="M13.486,532.43L21.925,532.43L30.364,532.43L38.803,532.43L47.243,532.43L55.682,532.43L64.121,532.43L72.56,532.43L80.999,532.43L89.438,532.43L97.877,532.43L106.32,532.43L114.75,532.43L123.19,532.43L131.63,532.43L140.07,532.43L148.51,532.43L156.95,532.43L165.39,532.43L173.83,532.43L182.27,532.43L190.71,532.43L199.15,532.43L207.58,532.43L216.02,532.43L224.46,532.43L232.9,532.43L241.34,532.43L249.78,532.43L258.22,532.43L266.66,532.43L275.1,532.43L283.54,532.43L291.98,532.43L300.41,532.43L308.85,532.43L317.29,532.43L325.73,532.43L334.17,532.43L342.61,532.43L351.05,532.43L359.49,532.43L367.93,532.43L376.37,532.43L384.8,532.43L393.24,532.43L401.68,532.43L410.12,532.43L418.56,532.43L427,532.43" style="fill:none;stroke:#000000;stroke-dasharray:5,5" />
<path d="M13.486,609.91L21.925,609.91L30.364,609.91L38.803,609.91L47.243,609.91L55.682,609.91L64.121,609.91L72.56,609.91L80.999,609.91L89.438,609.91L97.877,609.91L106.32,609.91L114.75,609.91L123.19,609.91L131.63,609.91L140.07,609.91L148.51,609.91L156.95,609.91L165.39,609.91L173.83,609.91L182.27,609.91L190.71,609.91L199.15,609.91L207.58,609.91L216.02,609.91L224.46,609.91L232.9,609.91L241.34,609.91L249.78,609.91L258.22,609.91L266.66,609.91L275.1,609.91L283.54,609.91L291.98,609.91L300.41,609.91L308.85,609.91L317.29,609.91L325.73,609.91L334.17,609.91L342.61,609.91L351.05,609.91L359.49,609.91L367.93,609.91L376.37,609.91L384.8,609.91L393.24,609.91L401.68,609.91L410.12,609.91L418.56,609.91L427,609.91" style="fill:none;stroke:#000000;stroke-dasharray:5,5" />
<path d="M220.24,5.5L220.24,648.66" style="fill:none;stroke:#000000" />
<path d="M427,5.5L427,648.66" style="fill:none;stroke:#000000" />
<path d="M13.486,5.5L13.486,648.66" style="fill:none;stroke:#000000" />
<path d="M13.486,28.747L220.24,183.72" style="fill:none;stroke:#FF0000;stroke-width:2" />
<path d="M220.24,28.747L13.486,106.24" style="fill:none;stroke:#00FF00;stroke-width:2" />
<path d="M220.24,106.24L427,183.72" style="fill:none;stroke:#0000FF;stroke-width:2" />
<path d="M220.24,338.7L427,416.19" style="fill:none;stroke:#FF0000;stroke-width:2" />
<path d="M220.24,416.19L13.486,493.68" style="fill:none;stroke:#00FF00;stroke-width:2" />
<path d="M427,106.24L220.24,571.17" style="fill:none;stroke:#0000FF;stroke-width:2" />
<g transform="rotate(90)">
<text x="648.66" y="12.397" transform="scale(1, -1)"
	style="font-family:Liberation Serif;font-variant:normal;font-weight:normal;font-style:normal;font-size:10px">Process 0</text>
</g>
<g transform="rotate(90)">
<text x="648.66" y="219.15" transform="scale(1, -1)"
	style="font-family:Liberation Serif;font-variant:normal;font-weight:normal;font-style:normal;font-size:10px">Process 1</text>
</g>
<g transform="rotate(90)">
<text x="648.66" y="425.91" transform="scale(1, -1)"
	style="font-family:Liberation Serif;font-variant:normal;font-weight:normal;font-style:normal;font-size:10px">Process 2</text>
</g>
<path d="M15.986,28.747A2.5,2.5 0 1 1 10.986,28.747A2.5,2.5 0 1 1 15.986,28.747Z"  />
<path d="M15.986,106.24A2.5,2.5 0 1 1 10.986,106.24A2.5,2.5 0 1 1 15.986,106.24Z"  />
<path d="M15.986,183.72A2.5,2.5 0 1 1 10.986,183.72A2.5,2.5 0 1 1 15.986,183.72Z"  />
<path d="M15.986,493.68A2.5,2.5 0 1 1 10.986,493.68A2.5,2.5 0 1 1 15.986,493.68Z"  />
<path d="M222.74,28.747A2.5,2.5 0 1 1 217.74,28.747A2.5,2.5 0 1 1 222.74,28.747Z"  />
<path d="M222.74,106.24A2.5,2.5 0 1 1 217.74,106.24A2.5,2.5 0 1 1 222.74,106.24Z"  />
<path d="M222.74,183.72A2.5,2.5 0 1 1 217.74,183.72A2.5,2.5 0 1 1 222.74,183.72Z"  />
<path d="M222.74,261.21A2.5,2.5 0 1 1 217.74,261.21A2.5,2.5 0 1 1 222.74,261.21Z"  />
<path d="M222.74,338.7A2.5,2.5 0 1 1 217.74,338.7A2.5,2.5 0 1 1 222.74,338.7Z"  />
<path d="M222.74,416.19A2.5,2.5 0 1 1 217.74,416.19A2.5,2.5 0 1 1 222.74,416.19Z"  />
<path d="M222.74,493.68A2.5,2.5 0 1 1 217.74,493.68A2.5,2.5 0 1 1 222.74,493.68Z"  />
<path d="M222.74,571.17A2.5,2.5 0 1 1 217.74,571.17A2.5,2.5 0 1 1 222.74,571.17Z"  />
<path d="M429.5,28.747A2.5,2.5 0 1 1 424.5,28.747A2.5,2.5 0 1 1 429.5,28.747Z"  />
<path d="M429.5,106.24A2.5,2.5 0 1 1 424.5,106.24A2.5,2.5 0 1 1 429.5,106.24Z"  />
<path d="M429.5,183.72A2.5,2.5 0 1 1 424.5,183.72A2.5,2.5 0 1 1 429.5,183.72Z"  />
<path d="M429.5,416.19A2.5,2.5 0 1 1 424.5,416.19A2.5,2.5 0 1 1 429.5,416.19Z"  />
<text x="13.486" y="-29.836" transform="scale(1, -1)"
	style="font-family:Liberation Serif;font-variant:normal;font-weight:normal;font-style:normal;font-size:10px">1</text>
<text x="13.486" y="-107.32" transform="scale(1, -1)"
	style="font-family:Liberation Serif;font-variant:normal;font-weight:normal;font-style:normal;font-size:10px">2</text>
<text x="13.486" y="-184.81" transform="scale(1, -1)"
	style="font-family:Liberation Serif;font-variant:normal;font-weight:normal;font-style:normal;font-size:10px">3</text>
<text x="13.486" y="-494.77" transform="scale(1, -1)"
	style="font-family:Liberation Serif;font-variant:normal;font-weight:normal;font-style:normal;font-size:10px">7</text>
<text x="220.24" y="-29.836" transform="scale(1, -1)"
	style="font-family:Liberation Serif;font-variant:normal;font-weight:normal;font-style:normal;font-size:10px">1</text>
<text x="220.24" y="-107.32" transform="scale(1, -1)"
	style="font-family:Liberation Serif;font-variant:normal;font-weight:normal;font-style:normal;font-size:10px">2</text>
<text x="220.24" y="-184.81" transform="scale(1, -1)"
	style="font-family:Liberation Serif;font-variant:normal;font-weight:normal;font-style:normal;font-size:10px">3</text>
<text x="220.24" y="-262.3" transform="scale(1, -1)"
	style="font-family:Liberation Serif;font-variant:normal;font-weight:normal;font-style:normal;font-size:10px">4</text>
<text x="220.24" y="-339.79" transform="scale(1, -1)"
	style="font-family:Liberation Serif;font-variant:normal;font-weight:normal;font-style:normal;font-size:10px">5</text>
<text x="220.24" y="-417.28" transform="scale(1, -1)"
	style="font-family:Liberation Serif;font-variant:normal;font-weight:normal;font-style:normal;font-size:10px">6</text>
<text x="220.24" y="-494.77" transform="scale(1, -1)"
	style="font-family:Liberation Serif;font-variant:normal;font-weight:normal;font-style:normal;font-size:10px">7</text>
<text x="220.24" y="-572.26" transform="scale(1, -1)"
	style="font-family:Liberation Serif;font-variant:normal;font-weight:normal;font-style:normal;font-size:10px">8</text>
<text x="427" y="-29.836" transform="scale(1, -1)"
	style="font-family:Liberation Serif;font-variant:normal;font-weight:normal;font-style:normal;font-size:10px">1</text>
<text x="427" y="-107.32" transform="scale(1, -1)"
	style="font-family:Liberation Serif;font-variant:normal;font-weight:normal;font-style:normal;font-size:10px">2</text>
<text x="427" y="-184.81" transform="scale(1, -1)"
	style="font-family:Liberation Serif;font-variant:normal;font-weight:normal;font-style:normal;font-size:10px">3</text>
<text x="427" y="-417.28" transform="scale(1, -1)"
	style="font-family:Liberation Serif;font-variant:normal;font-weight:normal;font-style:normal;font-size:10px">6</text>
</g>
</svg>
